<?xml version="1.0" encoding="UTF-8"?>
<!DOCTYPE svg PUBLIC "-//W3C//DTD SVG 1.1//EN" "http://www.w3.org/Graphics/SVG/1.1/DTD/svg11.dtd">
<svg xmlns="http://www.w3.org/2000/svg" version="1.1" width="861px" height="861px" style="shape-rendering:geometricPrecision; text-rendering:geometricPrecision; image-rendering:optimizeQuality; fill-rule:evenodd; clip-rule:evenodd" xmlns:xlink="http://www.w3.org/1999/xlink">
<g><path style="opacity:1" fill="#fdfdfd" d="M -0.5,-0.5 C 286.5,-0.5 573.5,-0.5 860.5,-0.5C 860.5,286.5 860.5,573.5 860.5,860.5C 573.5,860.5 286.5,860.5 -0.5,860.5C -0.5,573.5 -0.5,286.5 -0.5,-0.5 Z"/></g>
<g><path style="opacity:1" fill="#09addf" d="M 493.5,330.5 C 493.389,329.883 493.056,329.383 492.5,329C 493.516,328.481 494.182,327.647 494.5,326.5C 493.751,324.964 492.751,323.631 491.5,322.5C 491.789,316.878 489.955,311.878 486,307.5C 483.667,305.5 481.333,303.5 479,301.5C 479.03,299.342 478.863,297.342 478.5,295.5C 484.709,286.298 490.042,276.631 494.5,266.5C 485.475,266.832 476.475,266.498 467.5,265.5C 491.445,247.854 515.778,230.687 540.5,214C 541.448,213.517 542.448,213.351 543.5,213.5C 542.414,240.155 541.747,266.822 541.5,293.5C 540.448,293.649 539.448,293.483 538.5,293C 535.167,289.667 531.833,286.333 528.5,283C 527.833,282.333 527.167,282.333 526.5,283C 517.326,300.208 506.326,316.042 493.5,330.5 Z"/></g>
<g><path style="opacity:1" fill="#113474" d="M 356.5,379.5 C 336.021,383.463 317.688,378.797 301.5,365.5C 295.601,360.018 290.934,353.684 287.5,346.5C 284.553,338.328 282.22,329.995 280.5,321.5C 291.882,284.961 313.882,256.795 346.5,237C 371.452,223.803 397.119,222.136 423.5,232C 447.632,245.574 460.965,266.24 463.5,294C 454.257,309.091 442.924,322.591 429.5,334.5C 429.167,333.333 428.833,332.167 428.5,331C 427.446,315.068 425.612,299.235 423,283.5C 417.227,262.183 403.393,254.016 381.5,259C 353.199,270.644 335.699,291.478 329,321.5C 326.602,342.644 333.102,360.477 348.5,375C 351.312,376.328 353.978,377.828 356.5,379.5 Z"/></g>
<g><path style="opacity:1" fill="#0aa2dc" d="M 478.5,295.5 C 478.863,297.342 479.03,299.342 479,301.5C 481.333,303.5 483.667,305.5 486,307.5C 489.955,311.878 491.789,316.878 491.5,322.5C 492.751,323.631 493.751,324.964 494.5,326.5C 494.182,327.647 493.516,328.481 492.5,329C 493.056,329.383 493.389,329.883 493.5,330.5C 491.883,333.784 489.55,336.451 486.5,338.5C 485.957,338.44 485.624,338.107 485.5,337.5C 486.167,336.5 486.833,335.5 487.5,334.5C 486.329,332.831 484.996,331.331 483.5,330C 483.075,325.961 481.075,323.127 477.5,321.5C 475.817,318.653 473.65,316.319 471,314.5C 470.667,315.167 470.333,315.833 470,316.5C 469.647,314.926 468.98,313.259 468,311.5C 467.411,313.863 465.911,314.863 463.5,314.5C 468.27,307.946 473.27,301.613 478.5,295.5 Z"/></g>
<g><path style="opacity:1" fill="#7792be" d="M 510.5,327.5 C 511.084,325.059 512.417,323.559 514.5,323C 513.672,324.992 512.339,326.492 510.5,327.5 Z"/></g>
<g><path style="opacity:1" fill="#0597da" d="M 486.5,338.5 C 479.201,347.467 471.201,355.8 462.5,363.5C 461.32,360.56 462.32,358.393 465.5,357C 462.833,356 462.833,355 465.5,354C 462.938,350.566 460.938,346.732 459.5,342.5C 456.569,339.394 453.236,336.894 449.5,335C 449.833,334.667 450.167,334.333 450.5,334C 449.099,333.59 447.766,333.09 446.5,332.5C 452.195,326.474 457.861,320.474 463.5,314.5C 465.911,314.863 467.411,313.863 468,311.5C 468.98,313.259 469.647,314.926 470,316.5C 470.333,315.833 470.667,315.167 471,314.5C 473.65,316.319 475.817,318.653 477.5,321.5C 481.075,323.127 483.075,325.961 483.5,330C 484.996,331.331 486.329,332.831 487.5,334.5C 486.833,335.5 486.167,336.5 485.5,337.5C 485.624,338.107 485.957,338.44 486.5,338.5 Z"/></g>
<g><path style="opacity:1" fill="#048bd7" d="M 446.5,332.5 C 447.766,333.09 449.099,333.59 450.5,334C 450.167,334.333 449.833,334.667 449.5,335C 453.236,336.894 456.569,339.394 459.5,342.5C 460.938,346.732 462.938,350.566 465.5,354C 462.833,355 462.833,356 465.5,357C 462.32,358.393 461.32,360.56 462.5,363.5C 456.833,368.167 451.167,372.833 445.5,377.5C 445.421,376.07 445.754,374.736 446.5,373.5C 445.038,373.935 444.038,373.102 443.5,371C 443.911,369.856 444.244,368.689 444.5,367.5C 442.276,358.998 439.776,350.998 437,343.5C 435.14,345.201 432.973,346.201 430.5,346.5C 435.512,341.49 440.845,336.823 446.5,332.5 Z"/></g>
<g><path style="opacity:1" fill="#064795" d="M 280.5,321.5 C 282.22,329.995 284.553,338.328 287.5,346.5C 286.853,347.274 286.52,348.274 286.5,349.5C 286.936,352.179 287.436,354.845 288,357.5C 292.311,370.801 296.644,384.134 301,397.5C 304.025,401.024 306.858,404.691 309.5,408.5C 312.003,410.584 314.669,412.417 317.5,414C 315.564,414.813 313.564,415.313 311.5,415.5C 302.803,412.827 295.47,408.161 289.5,401.5C 290.091,400.849 290.757,400.182 291.5,399.5C 290.129,396.226 288.296,393.226 286,390.5C 282.571,372.883 279.405,355.217 276.5,337.5C 276.963,331.82 278.297,326.486 280.5,321.5 Z"/></g>
<g><path style="opacity:1" fill="#0c3e82" d="M 276.5,337.5 C 279.405,355.217 282.571,372.883 286,390.5C 288.296,393.226 290.129,396.226 291.5,399.5C 290.757,400.182 290.091,400.849 289.5,401.5C 278.165,388.956 273.165,374.123 274.5,357C 274.314,350.262 274.981,343.762 276.5,337.5 Z"/></g>
<g><path style="opacity:1" fill="#057ad1" d="M 430.5,387.5 C 425.784,390.863 420.784,393.863 415.5,396.5C 414.402,395.603 414.402,394.77 415.5,394C 414.5,393.667 413.5,393.333 412.5,393C 413.167,390.667 413.833,388.333 414.5,386C 410.744,381.32 407.911,376.154 406,370.5C 401.06,369.853 396.227,369.853 391.5,370.5C 401.086,365.575 410.419,360.241 419.5,354.5C 421.144,354.714 422.644,354.38 424,353.5C 425.399,354.227 426.899,354.727 428.5,355C 427.833,355.667 427.167,356.333 426.5,357C 427.618,362.835 429.285,368.502 431.5,374C 429.481,377.557 427.814,381.223 426.5,385C 428.32,385.2 429.653,386.034 430.5,387.5 Z"/></g>
<g><path style="opacity:1" fill="#103372" d="M 510.5,327.5 C 507.58,332.268 504.414,336.934 501,341.5C 491.108,357.598 492.608,372.431 505.5,386C 513.208,392.236 522.041,395.069 532,394.5C 538.99,394.369 545.823,393.535 552.5,392C 533.64,414.285 509.974,422.618 481.5,417C 466.615,411.283 455.282,401.45 447.5,387.5C 471.101,370.232 492.101,350.232 510.5,327.5 Z"/></g>
<g><path style="opacity:1" fill="#064fa3" d="M 287.5,346.5 C 290.934,353.684 295.601,360.018 301.5,365.5C 300.549,366.919 300.216,368.585 300.5,370.5C 301.833,370.5 303.167,370.5 304.5,370.5C 305.843,376.873 307.343,383.206 309,389.5C 314.416,397.997 320.083,406.33 326,414.5C 328.694,415.006 330.194,416.173 330.5,418C 337.492,418.5 344.492,418.666 351.5,418.5C 342.676,419.657 333.676,419.824 324.5,419C 319.923,418.275 315.59,417.108 311.5,415.5C 313.564,415.313 315.564,414.813 317.5,414C 314.669,412.417 312.003,410.584 309.5,408.5C 306.858,404.691 304.025,401.024 301,397.5C 296.644,384.134 292.311,370.801 288,357.5C 287.436,354.845 286.936,352.179 286.5,349.5C 286.52,348.274 286.853,347.274 287.5,346.5 Z"/></g>
<g><path style="opacity:1" fill="#0380d4" d="M 445.5,377.5 C 440.672,381.081 435.672,384.415 430.5,387.5C 429.653,386.034 428.32,385.2 426.5,385C 427.814,381.223 429.481,377.557 431.5,374C 429.285,368.502 427.618,362.835 426.5,357C 427.167,356.333 427.833,355.667 428.5,355C 426.899,354.727 425.399,354.227 424,353.5C 422.644,354.38 421.144,354.714 419.5,354.5C 422.627,351.102 426.293,348.435 430.5,346.5C 432.973,346.201 435.14,345.201 437,343.5C 439.776,350.998 442.276,358.998 444.5,367.5C 444.244,368.689 443.911,369.856 443.5,371C 444.038,373.102 445.038,373.935 446.5,373.5C 445.754,374.736 445.421,376.07 445.5,377.5 Z"/></g>
<g><path style="opacity:1" fill="#0670cd" d="M 415.5,396.5 C 409.818,400.008 403.818,403.008 397.5,405.5C 396.047,404.175 396.381,403.342 398.5,403C 398,402.833 397.5,402.667 397,402.5C 394.547,403.493 392.047,403.66 389.5,403C 391.901,402.195 391.734,401.362 389,400.5C 386.929,397.412 385.262,394.079 384,390.5C 379.241,388.07 375.074,384.903 371.5,381C 372.412,379.375 371.745,378.541 369.5,378.5C 376.757,375.883 384.09,373.216 391.5,370.5C 396.227,369.853 401.06,369.853 406,370.5C 407.911,376.154 410.744,381.32 414.5,386C 413.833,388.333 413.167,390.667 412.5,393C 413.5,393.333 414.5,393.667 415.5,394C 414.402,394.77 414.402,395.603 415.5,396.5 Z"/></g>
<g><path style="opacity:1" fill="#0154af" d="M 301.5,365.5 C 317.688,378.797 336.021,383.463 356.5,379.5C 358.167,379.5 359.833,379.5 361.5,379.5C 361.5,379.833 361.5,380.167 361.5,380.5C 356.445,381.871 351.278,382.871 346,383.5C 331.165,378.987 327.498,383.32 335,396.5C 339.572,400.636 342.906,405.636 345,411.5C 346.167,412.667 347.333,413.833 348.5,415C 352.148,415.11 354.815,415.943 356.5,417.5C 355.081,418.451 353.415,418.784 351.5,418.5C 344.492,418.666 337.492,418.5 330.5,418C 330.194,416.173 328.694,415.006 326,414.5C 320.083,406.33 314.416,397.997 309,389.5C 307.343,383.206 305.843,376.873 304.5,370.5C 303.167,370.5 301.833,370.5 300.5,370.5C 300.216,368.585 300.549,366.919 301.5,365.5 Z"/></g>
<g><path style="opacity:1" fill="#0167c8" d="M 369.5,378.5 C 371.745,378.541 372.412,379.375 371.5,381C 375.074,384.903 379.241,388.07 384,390.5C 385.262,394.079 386.929,397.412 389,400.5C 391.734,401.362 391.901,402.195 389.5,403C 392.047,403.66 394.547,403.493 397,402.5C 397.5,402.667 398,402.833 398.5,403C 396.381,403.342 396.047,404.175 397.5,405.5C 393.282,407.441 388.949,409.108 384.5,410.5C 383.687,409.347 382.687,409.347 381.5,410.5C 381.167,409.833 380.833,409.167 380.5,408.5C 379.914,408.709 379.414,409.043 379,409.5C 374.708,404.206 370.041,399.206 365,394.5C 361.762,390.691 359.596,386.358 358.5,381.5C 359.791,381.737 360.791,381.404 361.5,380.5C 361.5,380.167 361.5,379.833 361.5,379.5C 364.167,379.167 366.833,378.833 369.5,378.5 Z"/></g>
<g><path style="opacity:1" fill="#015cbd" d="M 361.5,380.5 C 360.791,381.404 359.791,381.737 358.5,381.5C 359.596,386.358 361.762,390.691 365,394.5C 370.041,399.206 374.708,404.206 379,409.5C 379.414,409.043 379.914,408.709 380.5,408.5C 380.833,409.167 381.167,409.833 381.5,410.5C 382.687,409.347 383.687,409.347 384.5,410.5C 375.483,414.06 366.15,416.394 356.5,417.5C 354.815,415.943 352.148,415.11 348.5,415C 347.333,413.833 346.167,412.667 345,411.5C 342.906,405.636 339.572,400.636 335,396.5C 327.498,383.32 331.165,378.987 346,383.5C 351.278,382.871 356.445,381.871 361.5,380.5 Z"/></g>
<g><path style="opacity:1" fill="#4d6693" d="M 304.5,455.5 C 305.167,463.167 305.833,470.833 306.5,478.5C 306.44,479.043 306.107,479.376 305.5,479.5C 304.502,471.528 304.169,463.528 304.5,455.5 Z"/></g>
<g><path style="opacity:1" fill="#26467b" d="M 231.5,455.5 C 234.833,455.5 238.167,455.5 241.5,455.5C 241.5,474.833 241.5,494.167 241.5,513.5C 238.167,513.5 234.833,513.5 231.5,513.5C 231.5,494.167 231.5,474.833 231.5,455.5 Z"/></g>
<g><path style="opacity:1" fill="#8295ba" d="M 426.5,463.5 C 426.808,465.924 426.474,468.257 425.5,470.5C 424.893,470.376 424.56,470.043 424.5,469.5C 425.167,467.5 425.833,465.5 426.5,463.5 Z"/></g>
<g><path style="opacity:1" fill="#1cb5e3" d="M 588.5,470.5 C 593.511,470.334 598.511,470.501 603.5,471C 606.909,472.696 608.242,475.529 607.5,479.5C 603.843,478.838 600.176,478.171 596.5,477.5C 589.355,477.42 588.022,479.92 592.5,485C 598.186,486.555 603.353,489.055 608,492.5C 611.893,505.682 606.893,512.016 593,511.5C 588.703,511.517 584.537,510.851 580.5,509.5C 580.5,506.833 580.5,504.167 580.5,501.5C 586.006,503.376 591.672,503.876 597.5,503C 600.167,501 600.167,499 597.5,497C 591.316,494.946 585.816,491.78 581,487.5C 578.036,479.427 580.536,473.761 588.5,470.5 Z"/></g>
<g><path style="opacity:1" fill="#14326e" d="M 226.5,511.5 C 223.375,512.479 220.042,512.813 216.5,512.5C 214.762,508.286 213.428,503.952 212.5,499.5C 205.137,499.169 197.803,499.503 190.5,500.5C 188.355,504.6 187.022,508.933 186.5,513.5C 182.833,513.5 179.167,513.5 175.5,513.5C 182.173,495.49 188.84,477.49 195.5,459.5C 199.555,459.176 203.555,459.509 207.5,460.5C 214.04,477.458 220.374,494.458 226.5,511.5 Z"/></g>
<g><path style="opacity:1" fill="#eceef3" d="M 200.5,470.5 C 201.586,470.62 202.253,471.287 202.5,472.5C 204.799,478.758 206.799,485.091 208.5,491.5C 203.456,491.827 198.456,491.494 193.5,490.5C 196.412,484.015 198.745,477.348 200.5,470.5 Z"/></g>
<g><path style="opacity:1" fill="#11316e" d="M 349.5,472.5 C 354.511,472.334 359.511,472.501 364.5,473C 367.539,474.031 370.039,475.865 372,478.5C 373.456,489.731 373.956,501.064 373.5,512.5C 370.753,512.813 368.086,512.48 365.5,511.5C 364.846,509.885 364.346,508.218 364,506.5C 358.227,513.972 351.06,515.472 342.5,511C 335.525,501.094 337.525,493.76 348.5,489C 353.489,488.501 358.489,488.334 363.5,488.5C 364.305,482.137 361.472,479.137 355,479.5C 351.711,479.614 348.544,480.281 345.5,481.5C 343.673,479.513 342.673,477.179 342.5,474.5C 345.067,474.279 347.401,473.612 349.5,472.5 Z"/></g>
<g><path style="opacity:1" fill="#1db2e1" d="M 548.5,475.5 C 549.219,473.112 550.885,471.612 553.5,471C 564.336,468.262 571.503,472.095 575,482.5C 576.182,490.147 575.182,497.48 572,504.5C 564.328,512.438 555.828,513.438 546.5,507.5C 545.614,508.325 545.281,509.325 545.5,510.5C 542.833,510.5 540.167,510.5 537.5,510.5C 537.5,491.5 537.5,472.5 537.5,453.5C 540.833,453.5 544.167,453.5 547.5,453.5C 547.175,461.019 547.508,468.352 548.5,475.5 Z"/></g>
<g><path style="opacity:1" fill="#07abde" d="M 548.5,475.5 C 549.117,475.389 549.617,475.056 550,474.5C 550.494,476.134 550.66,477.801 550.5,479.5C 549.878,480.627 549.045,481.627 548,482.5C 547.254,488.551 547.421,494.551 548.5,500.5C 548.753,502.827 548.086,504.827 546.5,506.5C 545.28,505.289 544.113,505.289 543,506.5C 541.025,501.702 539.692,496.702 539,491.5C 538.5,479.171 538.333,466.838 538.5,454.5C 541.167,454.5 543.833,454.5 546.5,454.5C 546.169,461.863 546.503,469.197 547.5,476.5C 548.107,476.376 548.44,476.043 548.5,475.5 Z"/></g>
<g><path style="opacity:1" fill="#0e2d6b" d="M 259.5,478.5 C 259.856,480.19 260.856,481.19 262.5,481.5C 261.559,483.05 260.893,484.716 260.5,486.5C 259.834,490.353 259.167,494.353 258.5,498.5C 256.647,499.301 254.981,499.635 253.5,499.5C 254.254,502.777 254.754,506.11 255,509.5C 256.922,506.911 259.089,506.411 261.5,508C 260.584,508.278 259.918,508.778 259.5,509.5C 259.5,515.833 259.5,522.167 259.5,528.5C 256.5,528.5 253.5,528.5 250.5,528.5C 250.5,509.833 250.5,491.167 250.5,472.5C 253.247,472.187 255.914,472.52 258.5,473.5C 259.309,475.071 259.643,476.738 259.5,478.5 Z"/></g>
<g><path style="opacity:1" fill="#133371" d="M 260.5,509.5 C 260.167,509.5 259.833,509.5 259.5,509.5C 259.918,508.778 260.584,508.278 261.5,508C 259.089,506.411 256.922,506.911 255,509.5C 254.754,506.11 254.254,502.777 253.5,499.5C 254.981,499.635 256.647,499.301 258.5,498.5C 259.167,494.353 259.834,490.353 260.5,486.5C 260.334,491.179 260.501,495.845 261,500.5C 266.248,508.41 271.581,508.41 277,500.5C 279.29,494.299 278.957,488.299 276,482.5C 271.65,479.019 267.15,478.685 262.5,481.5C 260.856,481.19 259.856,480.19 259.5,478.5C 265.853,471.931 273.187,470.764 281.5,475C 286.736,479.037 289.07,484.37 288.5,491C 288.992,506.508 281.659,513.842 266.5,513C 264.308,512.074 262.308,510.907 260.5,509.5 Z"/></g>
<g><path style="opacity:1" fill="#fbfdfd" d="M 548.5,500.5 C 547.421,494.551 547.254,488.551 548,482.5C 549.045,481.627 549.878,480.627 550.5,479.5C 555.145,477.661 559.312,478.328 563,481.5C 564.555,486.382 564.888,491.382 564,496.5C 562.154,502.995 557.988,505.162 551.5,503C 550.627,501.955 549.627,501.122 548.5,500.5 Z"/></g>
<g><path style="opacity:1" fill="#0c2e6a" d="M 232.5,456.5 C 235.167,456.5 237.833,456.5 240.5,456.5C 240.5,475.167 240.5,493.833 240.5,512.5C 237.833,512.5 235.167,512.5 232.5,512.5C 232.5,493.833 232.5,475.167 232.5,456.5 Z"/></g>
<g><path style="opacity:1" fill="#f5f6f9" d="M 260.5,486.5 C 260.893,484.716 261.559,483.05 262.5,481.5C 267.15,478.685 271.65,479.019 276,482.5C 278.957,488.299 279.29,494.299 277,500.5C 271.581,508.41 266.248,508.41 261,500.5C 260.501,495.845 260.334,491.179 260.5,486.5 Z"/></g>
<g><path style="opacity:1" fill="#62cae6" d="M 465.5,502.5 C 464.504,487.676 464.171,472.676 464.5,457.5C 461.5,457.5 458.5,457.5 455.5,457.5C 455.5,475.167 455.5,492.833 455.5,510.5C 467.167,510.5 478.833,510.5 490.5,510.5C 478.678,511.495 466.678,511.828 454.5,511.5C 454.5,493.167 454.5,474.833 454.5,456.5C 458.167,456.5 461.833,456.5 465.5,456.5C 465.5,471.833 465.5,487.167 465.5,502.5 Z"/></g>
<g><path style="opacity:1" fill="#10306c" d="M 304.5,455.5 C 304.169,463.528 304.502,471.528 305.5,479.5C 306.107,479.376 306.44,479.043 306.5,478.5C 309.122,473.856 313.122,471.856 318.5,472.5C 325.009,471.91 329.342,474.576 331.5,480.5C 331.5,491.167 331.5,501.833 331.5,512.5C 328.5,512.5 325.5,512.5 322.5,512.5C 322.666,502.828 322.5,493.161 322,483.5C 318.743,480.572 314.909,479.738 310.5,481C 308.622,482.543 307.122,484.376 306,486.5C 305.5,495.16 305.334,503.827 305.5,512.5C 302.167,512.5 298.833,512.5 295.5,512.5C 295.5,493.5 295.5,474.5 295.5,455.5C 298.5,455.5 301.5,455.5 304.5,455.5 Z"/></g>
<g><path style="opacity:1" fill="#133371" d="M 426.5,463.5 C 425.833,465.5 425.167,467.5 424.5,469.5C 421.157,468.776 417.824,467.943 414.5,467C 396.551,465.993 389.051,474.493 392,492.5C 393.43,498.261 396.93,502.095 402.5,504C 407.823,504.499 413.156,504.666 418.5,504.5C 418.5,500.167 418.5,495.833 418.5,491.5C 415.167,491.5 411.833,491.5 408.5,491.5C 408.5,489.167 408.5,486.833 408.5,484.5C 414.833,484.5 421.167,484.5 427.5,484.5C 427.5,492.833 427.5,501.167 427.5,509.5C 415.409,514.854 403.409,514.688 391.5,509C 381.529,499.837 378.362,488.67 382,475.5C 388.631,461.934 399.465,456.434 414.5,459C 418.057,459.598 421.557,460.431 425,461.5C 426.03,461.836 426.53,462.503 426.5,463.5 Z"/></g>
<g><path style="opacity:1" fill="#18b1e1" d="M 504.5,470.5 C 509.844,470.334 515.177,470.501 520.5,471C 525.099,472.598 527.932,475.765 529,480.5C 529.5,490.494 529.666,500.494 529.5,510.5C 526.753,510.813 524.086,510.48 521.5,509.5C 521.023,508.069 520.357,506.736 519.5,505.5C 513.505,512.039 506.505,513.205 498.5,509C 494.695,504.909 493.528,500.076 495,494.5C 497.087,490.698 500.254,488.198 504.5,487C 509.489,486.501 514.489,486.334 519.5,486.5C 520.041,483.348 519.041,480.848 516.5,479C 510.796,478.313 505.13,478.479 499.5,479.5C 499.007,477.194 498.674,474.861 498.5,472.5C 500.786,472.405 502.786,471.738 504.5,470.5 Z"/></g>
<g><path style="opacity:1" fill="#5d73a2" d="M 427.5,509.5 C 427.5,501.167 427.5,492.833 427.5,484.5C 421.167,484.5 414.833,484.5 408.5,484.5C 408.5,486.833 408.5,489.167 408.5,491.5C 407.527,489.052 407.194,486.385 407.5,483.5C 414.5,483.5 421.5,483.5 428.5,483.5C 428.826,492.349 428.493,501.016 427.5,509.5 Z"/></g>
<g><path style="opacity:1" fill="#f8fcfd" d="M 508.5,492.5 C 511.833,492.5 515.167,492.5 518.5,492.5C 519.724,501.108 516.057,504.941 507.5,504C 505.643,502.818 504.643,501.151 504.5,499C 505.205,496.458 506.539,494.292 508.5,492.5 Z"/></g>
<g><path style="opacity:1" fill="#8897b7" d="M 354.5,494.5 C 357.287,493.523 360.287,493.19 363.5,493.5C 363.802,496.059 363.468,498.393 362.5,500.5C 362.5,498.5 362.5,496.5 362.5,494.5C 359.833,494.5 357.167,494.5 354.5,494.5 Z"/></g>
<g><path style="opacity:1" fill="#f6f7f9" d="M 354.5,494.5 C 357.167,494.5 359.833,494.5 362.5,494.5C 362.5,496.5 362.5,498.5 362.5,500.5C 360.517,505.492 356.85,507.325 351.5,506C 348.71,503.79 347.877,500.956 349,497.5C 350.488,495.84 352.321,494.84 354.5,494.5 Z"/></g>
<g><path style="opacity:1" fill="#58709e" d="M 331.5,480.5 C 332.495,491.321 332.828,502.321 332.5,513.5C 328.958,513.813 325.625,513.479 322.5,512.5C 325.5,512.5 328.5,512.5 331.5,512.5C 331.5,501.833 331.5,491.167 331.5,480.5 Z"/></g>
<g><path style="opacity:1" fill="#02afe2" d="M 465.5,502.5 C 473.833,502.5 482.167,502.5 490.5,502.5C 490.5,505.167 490.5,507.833 490.5,510.5C 478.833,510.5 467.167,510.5 455.5,510.5C 455.5,492.833 455.5,475.167 455.5,457.5C 458.5,457.5 461.5,457.5 464.5,457.5C 464.171,472.676 464.504,487.676 465.5,502.5 Z"/></g>
<g><path style="opacity:1" fill="#7a8cae" d="M 226.5,511.5 C 227.043,511.56 227.376,511.893 227.5,512.5C 223.685,513.808 220.019,513.808 216.5,512.5C 220.042,512.813 223.375,512.479 226.5,511.5 Z"/></g>
<g><path style="opacity:1" fill="#5d739e" d="M 259.5,509.5 C 259.833,509.5 260.167,509.5 260.5,509.5C 260.5,516.167 260.5,522.833 260.5,529.5C 256.958,529.813 253.625,529.479 250.5,528.5C 253.5,528.5 256.5,528.5 259.5,528.5C 259.5,522.167 259.5,515.833 259.5,509.5 Z"/></g>
<g><path style="opacity:1" fill="#4b4c4f" d="M 417.5,549.5 C 419.346,549.222 420.68,549.889 421.5,551.5C 420.68,553.111 419.346,553.778 417.5,553.5C 417.5,552.167 417.5,550.833 417.5,549.5 Z"/></g>
<g><path style="opacity:1" fill="#a1a1a2" d="M 445.5,549.5 C 446.568,548.566 447.901,548.232 449.5,548.5C 449.826,556.684 449.492,564.684 448.5,572.5C 448.5,564.833 448.5,557.167 448.5,549.5C 447.5,549.5 446.5,549.5 445.5,549.5 Z"/></g>
<g><path style="opacity:1" fill="#404042" d="M 426.5,549.5 C 427.5,549.5 428.5,549.5 429.5,549.5C 429.5,557.167 429.5,564.833 429.5,572.5C 428.5,572.5 427.5,572.5 426.5,572.5C 426.5,564.833 426.5,557.167 426.5,549.5 Z"/></g>
<g><path style="opacity:1" fill="#c4c5c4" d="M 389.5,551.5 C 385.833,551.5 382.167,551.5 378.5,551.5C 378.5,558.5 378.5,565.5 378.5,572.5C 377.508,565.352 377.175,558.019 377.5,550.5C 381.702,550.183 385.702,550.517 389.5,551.5 Z"/></g>
<g><path style="opacity:1" fill="#acacac" d="M 235.5,551.5 C 234.5,551.5 233.5,551.5 232.5,551.5C 232.5,558.5 232.5,565.5 232.5,572.5C 233.5,572.5 234.5,572.5 235.5,572.5C 234.432,573.434 233.099,573.768 231.5,573.5C 231.5,565.833 231.5,558.167 231.5,550.5C 233.099,550.232 234.432,550.566 235.5,551.5 Z"/></g>
<g><path style="opacity:1" fill="#464648" d="M 533.5,556.5 C 540.845,555.187 544.512,558.187 544.5,565.5C 540.833,565.5 537.167,565.5 533.5,565.5C 533.33,566.822 533.663,567.989 534.5,569C 537.444,569.97 540.444,570.804 543.5,571.5C 538.735,574.605 534.568,573.938 531,569.5C 528.606,564.527 529.44,560.194 533.5,556.5 Z"/></g>
<g><path style="opacity:1" fill="#3c3d3e" d="M 260.5,556.5 C 261.735,556.721 262.735,557.388 263.5,558.5C 267.597,555.566 271.264,555.899 274.5,559.5C 274.5,563.833 274.5,568.167 274.5,572.5C 273.5,572.5 272.5,572.5 271.5,572.5C 271.817,568.298 271.483,564.298 270.5,560.5C 267.598,558.885 265.265,559.551 263.5,562.5C 262.834,565.689 262.167,569.023 261.5,572.5C 260.505,567.208 260.172,561.875 260.5,556.5 Z"/></g>
<g><path style="opacity:1" fill="#404143" d="M 255.5,572.5 C 254.5,572.5 253.5,572.5 252.5,572.5C 252.817,568.298 252.483,564.298 251.5,560.5C 250.726,559.853 249.726,559.52 248.5,559.5C 246.645,559.34 245.312,560.007 244.5,561.5C 243.518,564.962 243.185,568.629 243.5,572.5C 242.5,572.5 241.5,572.5 240.5,572.5C 240.5,567.167 240.5,561.833 240.5,556.5C 242.143,556.48 243.476,557.147 244.5,558.5C 248.041,555.884 251.541,555.884 255,558.5C 255.499,563.155 255.666,567.821 255.5,572.5 Z"/></g>
<g><path style="opacity:1" fill="#e5e5e5" d="M 534.5,559.5 C 537.604,558.971 539.937,559.971 541.5,562.5C 538.914,563.48 536.247,563.813 533.5,563.5C 533.433,562.041 533.766,560.708 534.5,559.5 Z"/></g>
<g><path style="opacity:1" fill="#3f3f40" d="M 235.5,551.5 C 235.5,558.5 235.5,565.5 235.5,572.5C 234.5,572.5 233.5,572.5 232.5,572.5C 232.5,565.5 232.5,558.5 232.5,551.5C 233.5,551.5 234.5,551.5 235.5,551.5 Z"/></g>
<g><path style="opacity:1" fill="#3d3e3f" d="M 420.5,556.5 C 420.5,561.833 420.5,567.167 420.5,572.5C 419.5,572.5 418.5,572.5 417.5,572.5C 417.5,567.167 417.5,561.833 417.5,556.5C 418.5,556.5 419.5,556.5 420.5,556.5 Z"/></g>
<g><path style="opacity:1" fill="#99999b" d="M 420.5,556.5 C 421.489,561.975 421.822,567.642 421.5,573.5C 419.901,573.768 418.568,573.434 417.5,572.5C 418.5,572.5 419.5,572.5 420.5,572.5C 420.5,567.167 420.5,561.833 420.5,556.5 Z"/></g>
<g><path style="opacity:1" fill="#454546" d="M 473.5,550.5 C 476.881,550.46 480.214,550.793 483.5,551.5C 483.719,552.675 483.386,553.675 482.5,554.5C 479.634,553.205 476.801,553.205 474,554.5C 473.219,555.944 473.386,557.277 474.5,558.5C 479.575,559.416 482.908,562.25 484.5,567C 482.336,573.177 478.002,575.177 471.5,573C 469.595,572.174 469.261,571.007 470.5,569.5C 473.103,570.562 475.77,570.728 478.5,570C 481.033,568.084 481.033,566.084 478.5,564C 469.187,561.918 467.52,557.418 473.5,550.5 Z"/></g>
<g><path style="opacity:1" fill="#444445" d="M 346.5,556.5 C 354.002,555.062 357.669,558.062 357.5,565.5C 353.774,565.177 350.107,565.511 346.5,566.5C 347.313,567.814 348.313,568.981 349.5,570C 351.9,570.186 354.234,570.686 356.5,571.5C 348.995,575.081 344.329,572.748 342.5,564.5C 342.782,561.269 344.115,558.602 346.5,556.5 Z"/></g>
<g><path style="opacity:1" fill="#e8e8e8" d="M 347.5,559.5 C 349.527,559.338 351.527,559.505 353.5,560C 354.337,561.011 354.67,562.178 354.5,563.5C 351.833,563.5 349.167,563.5 346.5,563.5C 346.433,562.041 346.766,560.708 347.5,559.5 Z"/></g>
<g><path style="opacity:1" fill="#898a8a" d="M 260.5,556.5 C 260.172,561.875 260.505,567.208 261.5,572.5C 262.167,569.023 262.834,565.689 263.5,562.5C 263.5,566.167 263.5,569.833 263.5,573.5C 262.167,573.5 260.833,573.5 259.5,573.5C 259.178,567.642 259.511,561.975 260.5,556.5 Z"/></g>
<g><path style="opacity:1" fill="#404040" d="M 389.5,551.5 C 393.88,554.068 394.547,557.402 391.5,561.5C 393.436,564.208 393.936,567.208 393,570.5C 392.25,571.126 391.416,571.626 390.5,572C 386.514,572.499 382.514,572.666 378.5,572.5C 378.5,565.5 378.5,558.5 378.5,551.5C 382.167,551.5 385.833,551.5 389.5,551.5 Z"/></g>
<g><path style="opacity:1" fill="#b5b5b7" d="M 387.5,554.5 C 385.833,554.5 384.167,554.5 382.5,554.5C 382.5,556.167 382.5,557.833 382.5,559.5C 384.167,559.5 385.833,559.5 387.5,559.5C 385.735,560.461 383.735,560.795 381.5,560.5C 381.5,558.167 381.5,555.833 381.5,553.5C 383.735,553.205 385.735,553.539 387.5,554.5 Z"/></g>
<g><path style="opacity:1" fill="#f6f6f6" d="M 387.5,554.5 C 388.649,554.791 389.316,555.624 389.5,557C 389.316,558.376 388.649,559.209 387.5,559.5C 385.833,559.5 384.167,559.5 382.5,559.5C 382.5,557.833 382.5,556.167 382.5,554.5C 384.167,554.5 385.833,554.5 387.5,554.5 Z"/></g>
<g><path style="opacity:1" fill="#f9fafa" d="M 388.5,563.5 C 389.147,564.274 389.48,565.274 389.5,566.5C 389.36,568.03 388.693,569.03 387.5,569.5C 385.833,569.5 384.167,569.5 382.5,569.5C 382.5,567.5 382.5,565.5 382.5,563.5C 384.5,563.5 386.5,563.5 388.5,563.5 Z"/></g>
<g><path style="opacity:1" fill="#9c9d9c" d="M 426.5,549.5 C 426.5,557.167 426.5,564.833 426.5,572.5C 427.5,572.5 428.5,572.5 429.5,572.5C 428.432,573.434 427.099,573.768 425.5,573.5C 425.174,565.316 425.508,557.316 426.5,549.5 Z"/></g>
<g><path style="opacity:1" fill="#454647" d="M 296.5,556.5 C 297.822,556.33 298.989,556.663 300,557.5C 301.136,561.243 302.47,564.91 304,568.5C 305.53,564.91 306.864,561.243 308,557.5C 309.183,556.269 310.349,556.269 311.5,557.5C 309.624,562.461 307.957,567.461 306.5,572.5C 304.833,572.5 303.167,572.5 301.5,572.5C 299.833,567.167 298.167,561.833 296.5,556.5 Z"/></g>
<g><path style="opacity:1" fill="#494a4a" d="M 334.5,552.5 C 336.176,553.183 336.843,554.517 336.5,556.5C 337.833,556.5 339.167,556.5 340.5,556.5C 340.5,557.5 340.5,558.5 340.5,559.5C 339.167,559.5 337.833,559.5 336.5,559.5C 336.5,563.167 336.5,566.833 336.5,570.5C 337.978,570.238 339.311,570.571 340.5,571.5C 337.718,572.952 335.218,572.619 333,570.5C 333.018,565.931 332.185,561.597 330.5,557.5C 332.552,556.389 333.886,554.723 334.5,552.5 Z"/></g>
<g><path style="opacity:1" fill="#b4b4b6" d="M 388.5,563.5 C 386.5,563.5 384.5,563.5 382.5,563.5C 382.5,565.5 382.5,567.5 382.5,569.5C 384.167,569.5 385.833,569.5 387.5,569.5C 385.735,570.461 383.735,570.795 381.5,570.5C 381.5,567.833 381.5,565.167 381.5,562.5C 384.059,562.198 386.393,562.532 388.5,563.5 Z"/></g>
<g><path style="opacity:1" fill="#8c8c8c" d="M 251.5,560.5 C 252.483,564.298 252.817,568.298 252.5,572.5C 253.5,572.5 254.5,572.5 255.5,572.5C 254.432,573.434 253.099,573.768 251.5,573.5C 251.5,569.167 251.5,564.833 251.5,560.5 Z"/></g>
<g><path style="opacity:1" fill="#bcbdbe" d="M 274.5,559.5 C 275.486,563.97 275.819,568.637 275.5,573.5C 273.833,573.5 272.167,573.5 270.5,573.5C 270.5,569.167 270.5,564.833 270.5,560.5C 271.483,564.298 271.817,568.298 271.5,572.5C 272.5,572.5 273.5,572.5 274.5,572.5C 274.5,568.167 274.5,563.833 274.5,559.5 Z"/></g>
<g><path style="opacity:1" fill="#8d8e91" d="M 244.5,561.5 C 244.5,565.5 244.5,569.5 244.5,573.5C 242.901,573.768 241.568,573.434 240.5,572.5C 241.5,572.5 242.5,572.5 243.5,572.5C 243.185,568.629 243.518,564.962 244.5,561.5 Z"/></g>
<g><path style="opacity:1" fill="#4d4d4e" d="M 397.5,556.5 C 398.833,556.5 400.167,556.5 401.5,556.5C 401.334,560.846 401.501,565.179 402,569.5C 405.408,571.223 407.741,570.223 409,566.5C 409.498,563.183 409.665,559.85 409.5,556.5C 410.5,556.5 411.5,556.5 412.5,556.5C 412.5,561.833 412.5,567.167 412.5,572.5C 411.07,572.579 409.736,572.246 408.5,571.5C 405.297,574.122 402.13,574.122 399,571.5C 397.612,566.628 397.112,561.628 397.5,556.5 Z"/></g>
<g><path style="opacity:1" fill="#474747" d="M 445.5,549.5 C 446.5,549.5 447.5,549.5 448.5,549.5C 448.5,557.167 448.5,564.833 448.5,572.5C 447.178,572.67 446.011,572.337 445,571.5C 440.233,574.758 436.566,573.758 434,568.5C 431.748,558.921 435.248,555.255 444.5,557.5C 445.48,554.914 445.813,552.247 445.5,549.5 Z"/></g>
<g><path style="opacity:1" fill="#f4f4f4" d="M 438.5,559.5 C 440.792,559.244 442.959,559.577 445,560.5C 446.004,563.993 445.504,567.159 443.5,570C 441.299,570.825 439.466,570.325 438,568.5C 437.264,565.408 437.431,562.408 438.5,559.5 Z"/></g>
<g><path style="opacity:1" fill="#4e4e4f" d="M 315.5,556.5 C 318.518,556.335 321.518,556.502 324.5,557C 325.333,557.833 326.167,558.667 327,559.5C 327.499,563.821 327.666,568.154 327.5,572.5C 325.876,572.64 324.71,571.973 324,570.5C 320.952,574.01 317.619,574.343 314,571.5C 313.242,569.231 313.409,567.064 314.5,565C 317.375,563.698 320.375,562.865 323.5,562.5C 323.5,561.5 323.5,560.5 323.5,559.5C 320.833,559.5 318.167,559.5 315.5,559.5C 315.5,558.5 315.5,557.5 315.5,556.5 Z"/></g>
<g><path style="opacity:1" fill="#f2f2f2" d="M 318.5,565.5 C 320.167,565.5 321.833,565.5 323.5,565.5C 323.349,569.314 321.349,570.981 317.5,570.5C 317.366,568.708 317.699,567.042 318.5,565.5 Z"/></g>
<g><path style="opacity:1" fill="#4b4b4c" d="M 282.5,556.5 C 291.158,555.327 294.992,558.994 294,567.5C 289.421,575.1 284.421,575.433 279,568.5C 277.593,563.643 278.76,559.643 282.5,556.5 Z"/></g>
<g><path style="opacity:1" fill="#f4f4f4" d="M 283.5,559.5 C 285.792,559.244 287.959,559.577 290,560.5C 291.004,563.993 290.504,567.159 288.5,570C 286.299,570.825 284.466,570.325 283,568.5C 282.264,565.408 282.431,562.408 283.5,559.5 Z"/></g>
<g><path style="opacity:1" fill="#565657" d="M 361.5,569.5 C 362.833,569.5 364.167,569.5 365.5,569.5C 365.833,572.5 364.5,573.833 361.5,573.5C 361.5,572.167 361.5,570.833 361.5,569.5 Z"/></g>
<g><path style="opacity:1" fill="#464647" d="M 491.5,556.5 C 494.167,556.5 496.833,556.5 499.5,556.5C 499.5,557.5 499.5,558.5 499.5,559.5C 497.143,559.337 494.81,559.503 492.5,560C 490.947,563.565 491.28,566.899 493.5,570C 495.568,570.687 497.568,570.52 499.5,569.5C 500.386,570.325 500.719,571.325 500.5,572.5C 490.233,574.732 486.066,570.732 488,560.5C 489.376,559.295 490.542,557.962 491.5,556.5 Z"/></g>
<g><path style="opacity:1" fill="#4b4b4b" d="M 504.5,556.5 C 516.677,555.031 521.011,560.365 517.5,572.5C 515.94,572.481 514.44,572.148 513,571.5C 505.963,575.458 502.963,573.458 504,565.5C 506.8,563.505 509.967,562.505 513.5,562.5C 513.5,561.5 513.5,560.5 513.5,559.5C 510.751,559.274 508.084,559.607 505.5,560.5C 504.571,559.311 504.238,557.978 504.5,556.5 Z"/></g>
<g><path style="opacity:1" fill="#e9eaea" d="M 507.5,565.5 C 509.5,565.5 511.5,565.5 513.5,565.5C 513.2,569.976 511.033,571.31 507,569.5C 506.421,568.072 506.588,566.738 507.5,565.5 Z"/></g>
<g><path style="opacity:1" fill="#4a4a4b" d="M 521.5,549.5 C 522.833,549.5 524.167,549.5 525.5,549.5C 525.201,556.891 525.535,564.224 526.5,571.5C 524.955,572.452 523.288,572.785 521.5,572.5C 521.5,564.833 521.5,557.167 521.5,549.5 Z"/></g>
<g><path style="opacity:1" fill="#494949" d="M 453.5,569.5 C 454.833,569.5 456.167,569.5 457.5,569.5C 457.5,570.5 457.5,571.5 457.5,572.5C 456.167,572.5 454.833,572.5 453.5,572.5C 453.5,571.5 453.5,570.5 453.5,569.5 Z"/></g>
<g><path style="opacity:1" fill="#505153" d="M 548.5,569.5 C 549.833,569.5 551.167,569.5 552.5,569.5C 552.5,570.5 552.5,571.5 552.5,572.5C 551.167,572.5 549.833,572.5 548.5,572.5C 548.5,571.5 548.5,570.5 548.5,569.5 Z"/></g>
</svg>
